<svg xmlns="http://www.w3.org/2000/svg" xmlns:xlink="http://www.w3.org/1999/xlink" width="58" height="28" viewBox="0 0 58 28">
  <defs>
    <clipPath id="clip-path">
      <path id="Path_35" data-name="Path 35" d="M24,0h2.618V19.7H24Zm0,0" transform="translate(-24)"/>
    </clipPath>
  </defs>
  <g id="midtrans" transform="translate(3 -0.39)">
    <rect id="Rectangle_72" data-name="Rectangle 72" width="58" height="28" rx="3" transform="translate(-3 0.39)" fill="#fff"/>
    <g id="surface1" transform="translate(16.999 4.54)">
      <path id="Path_32" data-name="Path 32" d="M1.308,23.741A1.3,1.3,0,0,1,0,22.444V12.99a1.3,1.3,0,0,1,.644-1.158,1.315,1.315,0,0,1,1.33,0,1.3,1.3,0,0,1,.644,1.158v9.454a1.3,1.3,0,0,1-1.309,1.3" transform="translate(0.001 -7.86)" fill="#89c8e9"/>
      <path id="Path_33" data-name="Path 33" d="M49.308,23.757A1.3,1.3,0,0,1,48,22.459V13.015a1.3,1.3,0,0,1,.644-1.158,1.315,1.315,0,0,1,1.33,0,1.3,1.3,0,0,1,.644,1.158v9.444a1.3,1.3,0,0,1-1.309,1.3" transform="translate(-32.377 -7.876)" fill="#0eaedd"/>
      <g id="Group_30" data-name="Group 30" transform="translate(7.812)" clip-path="url(#clip-path)">
        <path id="Path_34" data-name="Path 34" d="M25.308,19.733A1.306,1.306,0,0,1,24,18.428V1.358a1.309,1.309,0,1,1,2.618,0v17.07a1.305,1.305,0,0,1-1.308,1.3" transform="translate(-24 -0.032)" fill="#2e80c3"/>
      </g>
    </g>
  </g>
</svg>
