<svg xmlns="http://www.w3.org/2000/svg" width="415.317" height="224.416" viewBox="0 0 415.317 224.416">
  <g id="Group_50651" data-name="Group 50651" transform="translate(1228.611 -936.968)">
    <g id="Group_50650" data-name="Group 50650" transform="translate(-1212.267 1084.164)">
      <path id="Path_119447" data-name="Path 119447" d="M627.888,366.082c-.118,7.057-.233,13.935-.347,20.76h-13.31c.123-7.041.243-13.912.362-20.76Z" transform="translate(-613.028 -346.368)" fill="#eb60eb"/>
      <path id="Path_119448" data-name="Path 119448" d="M702.954,388.243c.125-7.058.247-13.909.369-20.777h13.3c-.123,7.021-.243,13.914-.363,20.777Z" transform="translate(-685.425 -347.497)" fill="#eb60eb"/>
      <path id="Path_119449" data-name="Path 119449" d="M706.357,332.654v-5.98h14.779v5.98Z" transform="translate(-688.202 -314.21)" fill="#fa00fa"/>
      <path id="Path_119450" data-name="Path 119450" d="M607.694,324.989h14.795v5.963H607.694Z" transform="translate(-607.694 -312.836)" fill="#fa00fa"/>
      <path id="Path_119451" data-name="Path 119451" d="M701.028,271.177c-.49,0-.983.036-1.469-.008a1.269,1.269,0,0,1-1.255-1.562c.517-3.591,4.38-7.807,7.857-8.577a5.532,5.532,0,0,1,5.974,2.613,3.746,3.746,0,0,1-1.151,4.966,11.757,11.757,0,0,1-5.574,2.193c-1.445.237-2.915.315-4.374.464Zm-1.819-1.058a19.984,19.984,0,0,0,8.059-2.168,13.33,13.33,0,0,0,2.074-1.479c.687-.567.582-1.192,0-1.81a3.153,3.153,0,0,0-3.356-.888,10.181,10.181,0,0,0-6.053,4.736A14.255,14.255,0,0,0,699.208,270.119Z" transform="translate(-681.614 -260.54)" fill="#fa00fa"/>
      <path id="Path_119452" data-name="Path 119452" d="M627.71,269.448a20.5,20.5,0,0,1-7.6-1.516c-1.683-.742-3.185-1.72-3.7-3.671a3.359,3.359,0,0,1,.6-2.863,5.343,5.343,0,0,1,6.3-2.119c3.928,1.468,6.134,4.5,7.118,8.466.3,1.228-.333,1.825-1.62,1.77C628.442,269.5,628.076,269.47,627.71,269.448Zm1.649-1c.063-.126.089-.153.087-.177A1.053,1.053,0,0,0,629.4,268a9.822,9.822,0,0,0-6.762-6.2,2.846,2.846,0,0,0-2.672.6c-1.048.851-1.118,1.526-.085,2.4C622.618,267.133,625.922,268,629.359,268.443Z" transform="translate(-614.716 -258.947)" fill="#fa00fa"/>
    </g>
    <g id="Group_50646" data-name="Group 50646" transform="translate(-1086.138 936.968)">
      <path id="Path_119355" data-name="Path 119355" d="M649.828,346.326l1.449.276c1.726,2.027,3.118,1.912,4.847-.246a44.771,44.771,0,0,1,11.334-10.343,13.172,13.172,0,0,1,7.022-2.162c3.813.007,4.556,1.026,3.4,4.7-2.18,2.49-5.01,4.062-7.888,5.567-4.4,1.573-8.772,3.244-13.225,4.656-1.192.377-2.232.492-2.311,1.949-.082,1.492,1.125,1.6,2.131,1.863q7.9,2.088,15.8,4.152c8.987,2.446,17.984,4.853,26.95,7.371,1.88.528,2.32-.764,3-1.846,6.907-11.045,13.852-22.069,20.646-33.182A4.309,4.309,0,0,1,727.7,326.7c7.332.721,14.678,1.309,22.029,1.806,1.435.1,2.59.252,2.555,1.853-.043,1.971-1.6,1.746-2.951,1.645-6.729-.5-13.464-.942-20.183-1.559a3.483,3.483,0,0,0-3.854,1.868q-30.2,48.523-60.557,96.945c-1.065,1.7-.964,2.437,1.055,2.831a44.242,44.242,0,0,1,4.369,1.174c4.824,1.468,8.9,3.9,9.98,9.246,1.173,5.8.033,11.156-4.4,15.384-4.138,3.949-9.1,4.885-14.576,3.416q-18.385-4.934-36.771-9.864-43.46-11.63-86.916-23.28c-1.453-.391-4.018-.186-3.354-2.707.654-2.482,2.767-1.139,4.253-.742q56.837,15.17,113.659,30.4c3.6.964,7.186,1.986,10.811,2.844a10.534,10.534,0,0,0,11.083-3.433,12.212,12.212,0,0,0,2.452-11.969c-1.122-3.77-4.485-5.064-7.892-6-7.187-1.98-14.4-3.863-21.6-5.793q-39.6-10.611-79.214-21.187c-2.031-.539-2.68-1.516-2.691-3.521q-.21-37.22-.519-74.438c-.02-2.906.656-3.408,3.6-2.625q26.759,7.112,53.5,14.272c1.543.412,3.1.781,4.646,1.17,5.362,1.436,10.718,2.893,16.091,4.289,1.016.264,2.185.454,2.832-.736.586-1.078-.461-1.569-.989-2.195q-4.6-5.455-9.246-10.875c-1.785-2.8-3.821-5.489-4.136-8.965.631-3.571,1.838-4.168,5.013-2.511a12.783,12.783,0,0,1,5.118,5.538c2.463,4.445,3.664,9.3,4.627,14.235C646.206,346.685,646.206,346.685,649.828,346.326Zm-9.157,21.494c2.362.984,4.548,2.568,7.326,2.133,3.562,1.018,7.121,2.045,10.686,3.05,6.237,1.759,6.239,1.753,8.685-4.359,1.112-2.29,2.209-4.586,3.34-6.865.456-.918.276-1.542-.74-1.79-5.978-1.458-11.785-3.612-17.921-4.443-2.2-1.311-4.714-1.62-7.143-2.2-2.884-.792-5.759-1.622-8.659-2.356-1.01-.255-2.09-.48-2.365,1.156-.407,2.423-.985,4.819-1.49,7.227-.456,1.5-.935,2.988-1.355,4.494-.218.781-.347,1.632.751,1.885C634.748,366.439,637.571,367.727,640.671,367.819Zm29.137,1.119q-1.167,2.36-2.334,4.722c-.4.806-.554,1.507.611,1.806,2.893.743,5.7,1.845,8.72,2.038,3.96,1.652,8.158,2.5,12.274,3.621,1.058.289,1.609-.147,2.138-1.011q3.314-5.424,6.74-10.778c.727-1.134.915-1.709-.752-2.1-3.957-.927-7.865-2.064-11.793-3.116-3.3-.875-6.589-1.763-9.89-2.619-1.131-.294-2.243-.529-2.857.952C671.759,364.633,670.764,366.778,669.808,368.939Zm-73.865-7.431c-1.359,4.346-.857,8.9-1.473,13.332-.022.16.482.392.741.591a13.822,13.822,0,0,0,4.893,1.111,146.685,146.685,0,0,0,19.549,5.248c3.952,1.72,3.939,1.716,5.044-2.374.943-3.5,1.87-7,2.905-10.464.454-1.521.094-2.267-1.49-2.654-5.067-1.237-10.11-2.573-15.163-3.87-4.228-1.185-8.636-1.959-12.627-3.689-3.089-1.339-2.572.264-2.559,2A3.526,3.526,0,0,0,595.942,361.508ZM633.7,423.24c1.825.928,3.887,1.085,5.781,1.763,1.248.446,1.742-.063,2.21-1.078,1.729-3.753,3.461-7.506,5.288-11.212.611-1.239.286-1.708-.954-1.986-2.828-.635-5.642-1.335-8.462-2.009a23.457,23.457,0,0,0-7.592-1.9c-2.64-1.478-5.666-1.719-8.481-2.638-1-.327-1.4.269-1.64,1.173-1.03,3.914-2.071,7.825-3.18,11.717-.4,1.392.208,1.911,1.431,2.218,2.9.728,5.791,1.512,8.685,2.273A32.608,32.608,0,0,0,633.7,423.24Zm1.591-34.7c-2.594-1.154-5.421-1.519-8.095-2.4-1.573-.516-2.234.089-2.612,1.581q-1.594,6.282-3.366,12.52c-.343,1.2-.115,1.826,1.117,2.121,2.916.7,5.823,1.434,8.733,2.156a29.629,29.629,0,0,0,7.384,1.844c2.658,1.257,5.593,1.592,8.357,2.5a1.725,1.725,0,0,0,2.389-1c1.887-4.1,3.836-8.166,5.726-12.262.442-.958.59-1.9-.834-2.25-3.859-.942-7.626-2.273-11.6-2.726C640.337,389.085,637.638,389.415,635.292,388.537Zm4.891-18.307c-2.9-.809-5.819-1.549-8.686-2.458-1.227-.389-1.576.1-1.843,1.108q-1.7,6.415-3.458,12.817c-.373,1.36-.026,2.154,1.446,2.5,2.926.7,5.825,1.506,8.735,2.269a29.325,29.325,0,0,0,6.872,1.633c3.945,1.612,8.172,2.256,12.211,3.542,1,.318,1.436-.166,1.819-1,1.922-4.179,3.85-8.355,5.848-12.5.652-1.352.213-1.9-1.111-2.228-4.975-1.252-9.938-2.551-14.905-3.833A35.818,35.818,0,0,0,640.183,370.231ZM630.177,358.44c.643-2.2,1.266-4.406,1.935-6.6.389-1.275.009-1.956-1.324-2.306-6.332-1.661-12.58-3.638-19-4.961q-6.367-1.819-12.734-3.638c-.956-.274-1.686-.342-1.788,1.033-.32,4.313-.746,8.619-1.08,12.932-.1,1.284,1.249,2.829,1.666,2.549,1.307-.878,2.2-.024,3.221.176,3.811.747,7.452,2.235,11.348,2.627,3.18,1.571,6.673,2.125,10.051,3.037C628.922,365.032,628.931,365,630.177,358.44Zm41.945,37.452c1.165.4,2.328.8,3.5,1.182.571.189,1.338.243,1.071,1.135-.221.736-.9.753-1.529.671-1.391-.181-2.7-.846-4.151-.7-3.832-1.638-7.985-2.19-11.909-3.514-1.119-.377-1.575.178-2,1.112-1.912,4.185-3.847,8.361-5.858,12.5-.566,1.165-.465,1.736.861,2.06,5.069,1.238,10.125,2.526,15.185,3.8.906,1.208,2.166,1.737,2.9.178,2.193-4.659,5.838-8.549,7.584-13.279.669-1.81,1.673-2.563,2.606-3.842,2.913-3.993,5.325-8.349,7.963-12.543.634-1.008.527-1.613-.7-1.89-3.8-.859-7.442-2.323-11.339-2.771-2.834-1.242-5.909-1.659-8.842-2.56-1.34-.411-1.893.37-2.384,1.432q-2.713,5.875-5.509,11.712c-.587,1.232-.714,2.056,1.02,2.444C664.452,393.882,668.279,394.923,672.122,395.892Zm-6.3,24.751a14.19,14.19,0,0,0,1.863-2.793c.414-1.1.48-2.426-1.491-1.885-4.894-1.232-9.8-2.426-14.676-3.721-1.21-.321-1.971-.276-2.549,1q-2.512,5.562-5.2,11.043c-.657,1.345-.282,1.85,1.105,2.19,4.3,1.055,8.6,2.129,12.847,3.391a2.385,2.385,0,0,0,3.222-1.323C662.5,425.875,664.185,423.273,665.817,420.643Zm-76.845-24.438a1.068,1.068,0,0,0-.9-.849q-8.623-2.4-17.256-4.766c-1.271-.346-1.606.361-1.817,1.534-.757,4.213-.163,8.444-.333,12.661a1.312,1.312,0,0,0,1.142,1.5c5.3,1.37,10.584,2.787,15.873,4.189,3.558,1.313,3.553,1.313,3.792-2.286.123-1.854.263-3.708.4-5.561.1-1.307-.191-2.657.454-3.906.247-.479.554-1.072,1.088-.959a1.047,1.047,0,0,1,.73,1.48c-1.112,2.4-.161,4.881-.43,7.305-.08,1.31-.143,2.622-.247,3.929-.07.888.169,1.6,1.087,1.848,5.846,1.56,11.6,3.487,17.573,4.552,3.893,1.819,4.1,1.735,5.177-2.251.642-2.384,1.255-4.777,1.863-7.17,1.035-4.073,1.028-4.074-3.175-4.757-6.252-2.542-12.827-3.921-19.381-5.377-.453-.216-1.075-.739-1.33-.6a2.088,2.088,0,0,1-3.11-.662C590.058,395.9,589.386,396.146,588.972,396.205Zm-14.277-23.6c-1.531-.581-3.067-1.146-4.591-1.745-1.483-.584-1.827.059-1.8,1.446.109,4.649.188,9.3.186,13.951,0,1.712.67,2.242,2.26,1.745,6.109,2.5,12.592,3.723,18.914,5.5,1.133.318,1.39-.448,1.382-1.342a130.224,130.224,0,0,1,1.006-13.421c.082-.874.212-1.928-.935-2.19C585.631,375.292,580.336,373.226,574.695,372.607Zm40.186,27.377c1.5.608,3.4,2.382,4.3-.257,1.48-4.32,2.452-8.813,3.642-13.232.2-.735.32-1.4-.726-1.586-1.108-.193-2.208-.426-3.312-.641a145.414,145.414,0,0,0-19.462-5.234,15.142,15.142,0,0,0-1.664-.743c-3.394-1.064-3.487-1-3.823,2.508-.361,3.782-.644,7.572-1.063,11.348-.208,1.868.3,2.9,2.353,2.694C601.677,396.693,608.141,398.866,614.88,399.985Zm-21.543-39.271c1.072-2.263.25-3.3-2.128-3.8-3.639-.764-7.215-1.821-10.832-2.694-.811-.2-1.752-.267-1.552-1.328.188-.995,1.2-.322,1.819-.514a2.682,2.682,0,0,1,1.261.215c3.421.851,6.851,1.667,10.254,2.588,1.329.36,1.959.157,2.071-1.355q.438-5.955,1.073-11.9c.144-1.367-.2-2.05-1.638-2.422q-11.843-3.06-23.63-6.327c-1.71-.478-1.96.064-1.907,1.556.094,2.653.048,5.311.073,7.967.058,6.359.057,6.373,6.209,8.039.574.156,1.382-.114,1.18.881a1.176,1.176,0,0,1-1.661.871c-1.209-.5-2.531-.546-3.712-1.262-.912-.554-2.036-.545-2,1.212.087,4.868.069,9.737.092,14.606,0,.637.006,1.329.794,1.475,2.135.4,4.049,1.827,6.367,1.362,4.933,1.995,10.188,2.879,15.261,4.391,1.131.337,1.822-.04,1.887-1.414C592.8,368.815,593.089,364.765,593.338,360.714Z" transform="translate(-534.018 -255.335)" fill="#fa00fa"/>
      <path id="Path_119356" data-name="Path 119356" d="M764.236,512.376c.018-20.348.085-40.7-.006-61.044-.012-2.714.782-3.645,3.47-3.41,2.464.215,4.96.065,7.443.075a8.422,8.422,0,0,1,3.553-.515c2.375,1,4.881.234,7.307.534,1.325-.041,2.687.184,3.914-.549,3.58,1.066,7.249.218,10.865.51l3.662-.532c.753,2.6.164,5.272.371,7.9a2.689,2.689,0,0,1-1.184,2.527c-2.878,2.023-3.529,4.809-3.185,8.12a38.512,38.512,0,0,1,.011,6.108c-.1,1.76.366,2.642,2.337,2.485a41.9,41.9,0,0,1,5.589-.008c1.6.087,2.222-.457,2.16-2.112-.109-2.92-.121-5.85,0-8.768a4,4,0,0,0-1.684-3.866,6.867,6.867,0,0,1-3.092-7.305,6.227,6.227,0,0,0,.009-1.062c.006-3.45.006-3.442,3.39-3.5,1.026-.018,2.2.293,2.733-1.04.2.288.385.814.6.827,2.9.176,2.848,2.252,2.839,4.3q-.025,4.878-.065,9.756c-.741.161-.949.67-.961,1.367-.114,6.332-1.977,12.377-4.114,18.159a54.374,54.374,0,0,1-10.55,18.037,35.814,35.814,0,0,1-18.718,11.446,1.524,1.524,0,0,0-1.266,1.488Z" transform="translate(-600.619 -291.313)" fill="#ee48ee"/>
      <path id="Path_119357" data-name="Path 119357" d="M775.876,271.919c-2.475-.691-3.156-2.4-2.562-4.708,1.41-5.472,2.887-10.928,4.318-16.394a4.756,4.756,0,0,1,2.073-2.925c9.331-6.273,18.659-12.555,27.893-18.971,2.219-1.542,3.716-1.185,5.1.856q6.558,9.659,13.085,19.339c1.341,1.986,1.077,3.587-1.07,4.882-1.111.67-2.393,1.245-2.88,2.631a2.347,2.347,0,0,0-1.981.42c-7,4.865-13.988,9.761-21.088,14.484-1.406.935-2.651,2.593-4.531,2.436-2.966-.247-5.893-1-8.859-1.187C782.2,272.581,779.111,271.4,775.876,271.919Zm25.131-18.4c1.364,4.068,3.243,5.381,6.017,4.388a4.062,4.062,0,0,0,2.205-5.293c-.846-2.455-2.817-2.814-7.141-1.252a15.882,15.882,0,0,1,1.416-3.941c.4-1.077,1.922-2.65.621-3.224-1.586-.7-1.494,1.651-2.213,2.6s-.525,2.439-1.784,3.119c-1.628-3.473-3.509-4.673-5.965-3.743a4.026,4.026,0,0,0-1.129,6.858c1.741,1.338,3.658.686,5.893.326-.8,1.947-1.471,3.546-2.1,5.164-.194.5-.3,1.158.222,1.455.752.431,1.122-.229,1.385-.792C799.285,257.354,800.1,255.515,801.007,253.515Zm-17.144,11.761c.015-1.632-.523-2.755-2.03-2.814a2.406,2.406,0,0,0-2.631,2.4,2.155,2.155,0,0,0,2.342,2.322C783.049,267.191,783.946,266.7,783.863,265.276Z" transform="translate(-603.189 -227.968)" fill="#ff80ff"/>
      <path id="Path_119358" data-name="Path 119358" d="M851.7,467.188l1.541-.128,2.865,0c4.86.026,9.719.069,14.578.068,2.5,0,3.021-.869,2.038-3.281a8.7,8.7,0,0,0-12.237-4.036c-1.958,1.109-2.926,2.986-4.185,4.658a4.473,4.473,0,0,1-2.5-.636c2.153-5.764,6.47-8.446,12.783-7.941,4.489.359,8.867,4.534,9.651,9.533.259,1.647,1.063,1.7,2.312,1.727,5.028.112,5.033.134,5.167,5.275.028,1.057,0,2.116-.006,3.174-1.223,6.025-4.346,11.044-8.391,15.537-6.427,7.138-14.672,10.731-24.037,12.07C852.243,491.215,851.533,479.2,851.7,467.188Z" transform="translate(-625.805 -293.891)" fill="#ee48ee"/>
      <path id="Path_119359" data-name="Path 119359" d="M839.319,458.959c-.171,12.008.539,24.027-.417,36.026q-.016,5.825-.032,11.65l-11.224.045a8.623,8.623,0,0,0,.5-2.022q0-24.248-.064-48.5.033-4.878.065-9.756c.01-2.052.065-4.128-2.839-4.3-.217-.013-.4-.539-.6-.828-1.029-6.43-4.634-9.6-11.446-10.063a21,21,0,0,1-4.778-2.648c7.875-3.566,17.689,1.363,19.652,10.132.6,2.664,1.525,3.472,4.279,3.381,6.83-.226,6.828-.062,6.84,6.8C839.256,452.235,839.3,455.6,839.319,458.959Z" transform="translate(-613.421 -285.662)" fill="#f0f"/>
      <path id="Path_119361" data-name="Path 119361" d="M851.241,522.911q.016-5.825.032-11.65c9.366-1.34,17.611-4.933,24.038-12.071,4.045-4.493,7.167-9.512,8.391-15.537q1.28,13.508,2.56,27.015.583,6.173,1.154,12.348Z" transform="translate(-625.792 -301.938)" fill="#f0f"/>
      <path id="Path_119362" data-name="Path 119362" d="M820.83,538.892,857,539q4.252.049,8.506.1c1.263.016,2.719-.064,2.713,1.713,0,1.672-1.413,1.515-2.56,1.515q-58.522.01-117.043.011c-1.175,0-2.531.111-2.5-1.566.031-1.539,1.274-1.671,2.508-1.678,3.455-.021,6.911-.07,10.365-.107l15.435-.068,35.174.023Z" transform="translate(-595.381 -317.919)" fill="#fa00fa"/>
      <path id="Path_119363" data-name="Path 119363" d="M777,283.56c3.235-.515,6.321.662,9.5.862,2.966.187,5.893.94,8.859,1.187,1.88.157,3.124-1.5,4.531-2.436,7.1-4.723,14.084-9.619,21.088-14.484a2.348,2.348,0,0,1,1.981-.42c.888,2.959,1.771,5.919,2.672,8.874.6,1.964-.035,3.309-2.018,3.895q-15.777,4.661-31.566,9.284a3.044,3.044,0,0,1-2.323-.208Q783.36,286.842,777,283.56Z" transform="translate(-604.314 -239.608)" fill="#f0f"/>
      <path id="Path_119364" data-name="Path 119364" d="M685.07,344.455c-3.622.359-3.622.359-4.3-3.106-.962-4.933-2.163-9.79-4.627-14.235a12.783,12.783,0,0,0-5.118-5.538c-3.175-1.657-4.382-1.06-5.013,2.511-3.586-1.514-7.019-1.539-10.18,1.05,2.46-8.761,11.2-11.794,18.314-6.229,6.726,5.261,10.155,12.321,10.739,20.786C685,341.277,685.011,342.867,685.07,344.455Z" transform="translate(-569.26 -253.464)" fill="#d564d5"/>
      <path id="Path_119365" data-name="Path 119365" d="M725.612,341.442c1.157-3.676.414-4.695-3.4-4.7a13.171,13.171,0,0,0-7.022,2.162,44.772,44.772,0,0,0-11.334,10.343c-1.729,2.158-3.121,2.273-4.847.246,4.575-9.064,11.692-14.865,21.793-16.72,5.764-1.058,11.2,1.794,12.5,6.794a18.224,18.224,0,0,1,.757,7.253c-.635-.026-.781-.478-1.038-.977-1.2-2.328-2.995-3.833-5.784-3.785C726.619,342.068,725.994,342.066,725.612,341.442Z" transform="translate(-581.751 -258.224)" fill="#d564d5"/>
      <path id="Path_119366" data-name="Path 119366" d="M671.32,339.727q4.627,5.435,9.246,10.875c.528.626,1.574,1.117.989,2.195-.647,1.19-1.816,1-2.832.736-5.373-1.4-10.729-2.853-16.091-4.289q-1.374-1.774-2.749-3.55c.3-4.464,2.387-6.423,6.786-6.516A19.325,19.325,0,0,1,671.32,339.727Z" transform="translate(-570.431 -260.14)" fill="#d564d5"/>
      <path id="Path_119367" data-name="Path 119367" d="M721.408,365.514q-7.9-2.073-15.8-4.152c-1.006-.266-2.213-.372-2.131-1.863.08-1.456,1.119-1.571,2.311-1.949,4.453-1.411,8.824-3.082,13.225-4.656,8.205,3.253,7.575,5.227,7.363,10.451C724.91,364.5,723.033,364.719,721.408,365.514Z" transform="translate(-583.042 -264.109)" fill="#d564d5"/>
      <path id="Path_119369" data-name="Path 119369" d="M732.7,361.079c.212-5.224.842-7.2-7.363-10.451,2.878-1.505,5.708-3.077,7.888-5.567.382.624,1.007.625,1.626.615,2.789-.048,4.583,1.458,5.784,3.785.257.5.4.951,1.038.977C741.019,355.944,737.638,359.163,732.7,361.079Z" transform="translate(-589.368 -261.843)" fill="#ff9aff"/>
      <path id="Path_119370" data-name="Path 119370" d="M669.774,335.88a19.325,19.325,0,0,0-4.651-.549c-4.4.094-6.484,2.052-6.786,6.516a14.939,14.939,0,0,1-3.676-12.011,2.364,2.364,0,0,1,.8-1.872c3.159-2.588,6.592-2.563,10.178-1.049C665.954,330.391,667.99,333.078,669.774,335.88Z" transform="translate(-568.885 -256.293)" fill="#ff9aff"/>
      <path id="Path_119371" data-name="Path 119371" d="M800.258,428.661a21,21,0,0,0,4.778,2.648c.958,2.611,3.33,4.534,3.64,7.461L805,438.762c-1.51-2.274-2.3-5.251-5.637-5.74-1-1.569-2.567-1.753-4.222-1.721-5.528-.151-9.115,2.657-11.4,7.447l-3.678.018C782.29,429.852,790.482,425.754,800.258,428.661Z" transform="translate(-605.199 -285.761)" fill="#ee48ee"/>
      <path id="Path_119372" data-name="Path 119372" d="M566.438,404.964c0,4.685.014,9.37-.014,14.055,0,.773.528,1.953-.962,1.98-1.561.028-.948-1.242-.957-1.953q-.191-14.317-.267-28.637c-.006-.9-.372-2.312,1.009-2.323,1.414-.011.982,1.421.989,2.293.041,4.861.02,9.723.02,14.585Z" transform="translate(-542.746 -274.29)" fill="#ee48ee"/>
      <path id="Path_119374" data-name="Path 119374" d="M554.8,372.723q0,3.983,0,7.965c0,.8.073,1.777-1.068,1.753s-1.008-1-1.012-1.8c-.029-5.31-.07-10.621-.082-15.932,0-.746-.274-1.836.87-1.9,1.34-.073,1.113,1.107,1.121,1.947.026,2.654.009,5.31.009,7.965Z" transform="translate(-539.395 -266.977)" fill="#ee48ee"/>
      <path id="Path_119375" data-name="Path 119375" d="M870.223,314.494c-.271.359-.419.758-.692.879a7.516,7.516,0,0,0-3.856,3.757c-.625,1.277-1.281.4-1.586-.38a5.494,5.494,0,0,0-3.226-3.261c-1.284-.518-1.527-1.232-.066-1.847a5.491,5.491,0,0,0,3.082-3.069c.426-1.017,1.2-1.5,1.912-.367a7.6,7.6,0,0,0,3.73,3.512C869.79,313.818,869.958,314.189,870.223,314.494Z" transform="translate(-628.267 -251.57)" fill="#ee48ee"/>
      <path id="Path_119377" data-name="Path 119377" d="M542.234,317.6c1.417,0,2.834-.014,4.25,0,.982.011,1.784.338,1.834,1.463a1.426,1.426,0,0,1-1.547,1.49q-4.773.107-9.55-.024a1.484,1.484,0,0,1-1.45-1.615c.048-.98.8-1.3,1.681-1.307C539.047,317.59,540.641,317.6,542.234,317.6Z" transform="translate(-534.525 -253.896)" fill="#f0f"/>
      <path id="Path_119378" data-name="Path 119378" d="M546.5,295.874a5.31,5.31,0,0,1,1.161.708c1.971,1.914,3.91,3.86,5.844,5.811.763.77,1.151,1.674.23,2.543-.88.831-1.63.205-2.287-.447q-3.017-3-6.016-6.015c-.522-.525-.93-1.1-.479-1.878A1.569,1.569,0,0,1,546.5,295.874Z" transform="translate(-537.125 -247.613)" fill="#f0f"/>
      <path id="Path_119379" data-name="Path 119379" d="M567,293.028c0-1.505-.014-3.011.007-4.516.01-.75.185-1.468,1.117-1.514a1.341,1.341,0,0,1,1.507,1.474c.035,3.1.016,6.2,0,9.3a1.215,1.215,0,0,1-1.3,1.355c-1.068.022-1.33-.689-1.333-1.579C566.99,296.039,566.994,294.533,567,293.028Z" transform="translate(-543.557 -245.045)" fill="#f0f"/>
      <path id="Path_119380" data-name="Path 119380" d="M554.955,399.758c0,1.406,0,2.811,0,4.217a1.017,1.017,0,0,1-.856,1.146c-.76.094-1.158-.419-1.171-1.112-.053-2.9-.063-5.8-.081-8.7,0-.679.225-1.261,1-1.277s1.031.566,1.039,1.242c.016,1.493.005,2.986.005,4.48Z" transform="translate(-539.465 -276.012)" fill="#ee48ee"/>
      <path id="Path_119381" data-name="Path 119381" d="M754.45,304.136c-.092.173-.158.524-.338.6-2.279.924-1.9,3.084-2.359,4.873-.18.7-.311,1.8-1.414,1.451-.859-.273-.536-1.208-.364-1.844.463-1.706,1.1-3.427-1.809-3.248-.353.022-.728-.164-.7-.593.012-.217.212-.566.387-.608,1.946-.476,3.9-.924,5.861-1.325C754.068,303.364,754.336,303.685,754.45,304.136Z" transform="translate(-595.768 -249.798)" fill="#f0f"/>
      <path id="Path_119382" data-name="Path 119382" d="M737.267,292.536c.613.166.619.62.618,1.057,0,1.655-.3,3.35.836,4.827a.95.95,0,0,1-.17.915,1.087,1.087,0,0,1-.94.028c-1.583-.689-2.242-5.229-.953-6.447A3.387,3.387,0,0,1,737.267,292.536Z" transform="translate(-592.445 -246.648)" fill="#f0f"/>
      <path id="Path_119383" data-name="Path 119383" d="M751.279,292.681c-.116.677-.667,1.1-1.205.462a17.873,17.873,0,0,0-3.973-3.754c-.714-.458-.434-1.129.293-1.372C747.558,287.628,751.424,291.262,751.279,292.681Z" transform="translate(-595.254 -245.332)" fill="#f0f"/>
      <path id="Path_119384" data-name="Path 119384" d="M770.061,291.826c.058.934-3.594,5.069-4.315,5.11-.793.044-.915-.52-.64-1.034a15.632,15.632,0,0,1,3.843-4.318A.667.667,0,0,1,770.061,291.826Z" transform="translate(-600.834 -246.311)" fill="#f0f"/>
      <path id="Path_119385" data-name="Path 119385" d="M745.784,329.853c-.807-.014-1.036-.472-.833-1.049.553-1.564,1.159-3.109,1.8-4.641a.918.918,0,0,1,1.063-.577.632.632,0,0,1,.542.77c-.622,1.719-1.3,3.418-2,5.108C746.269,329.658,745.942,329.75,745.784,329.853Z" transform="translate(-595.021 -255.624)" fill="#f0f"/>
      <path id="Path_119386" data-name="Path 119386" d="M779.924,443.249l3.677-.018q-.23,1.592-.461,3.183a8.423,8.423,0,0,0-3.553.515Q779.753,445.09,779.924,443.249Z" transform="translate(-605.062 -290.244)" fill="#ee48ee"/>
      <path id="Path_119387" data-name="Path 119387" d="M854.6,467.1a4.47,4.47,0,0,0,2.495.636q-.1,1.3-.193,2.591l-2.865,0C854.289,469.253,853.735,468.05,854.6,467.1Z" transform="translate(-626.602 -297.148)" fill="#f0f"/>
      <path id="Path_119389" data-name="Path 119389" d="M624.2,402.022a145.306,145.306,0,0,1,19.462,5.235c-.792,5.365-2.585,10.482-3.907,15.715-6.74-1.119-13.2-3.291-19.751-5.143Z" transform="translate(-558.894 -278.322)" fill="#d564d5"/>
      <path id="Path_119390" data-name="Path 119390" d="M589.649,392.978c5.642.618,10.937,2.684,16.426,3.939,1.147.262,1.017,1.316.935,2.19A130.222,130.222,0,0,0,606,412.529c.009.894-.249,1.661-1.382,1.342-6.322-1.775-12.8-3-18.913-5.5A127.36,127.36,0,0,1,589.649,392.978Z" transform="translate(-548.972 -275.706)" fill="#d564d5"/>
      <path id="Path_119391" data-name="Path 119391" d="M633.51,447.3c-5.975-1.065-11.727-2.992-17.573-4.552-.918-.245-1.158-.959-1.087-1.848.1-1.308.166-2.62.247-3.929,1.485-2.913,1.645-6.241,2.9-9.227,6.554,1.456,13.129,2.835,19.381,5.378C636.189,437.88,635.32,442.72,633.51,447.3Z" transform="translate(-557.399 -285.765)" fill="#d564d5"/>
      <path id="Path_119392" data-name="Path 119392" d="M646.552,398.689A146.832,146.832,0,0,1,627,393.44c.143-3.053,1.514-5.786,2.277-8.677,1.129-4.275,1.136-4.27,5.465-3.172a3.654,3.654,0,0,0,.8.027c3.681,1.017,7.339,2.126,11.046,3.033,7.384,1.806,6.457.785,4.465,7.872-.169.6-.2,1.423-1.027,1.2-2.433-.643-2.137,1.438-2.664,2.608C647.025,397.08,647.533,398.136,646.552,398.689Z" transform="translate(-560.919 -272.233)" fill="#d564d5"/>
      <path id="Path_119393" data-name="Path 119393" d="M599.757,438.126c-5.29-1.4-10.576-2.819-15.873-4.189a1.312,1.312,0,0,1-1.142-1.5c.17-4.217-.424-8.448.333-12.661.211-1.173.546-1.88,1.817-1.534q8.636,2.351,17.256,4.766a1.067,1.067,0,0,1,.9.849,5.266,5.266,0,0,1-.354,3.076C601.706,430.663,600.735,434.4,599.757,438.126Z" transform="translate(-548.096 -282.99)" fill="#d564d5"/>
      <path id="Path_119394" data-name="Path 119394" d="M710.364,457.081c-1.632,2.63-3.315,5.232-4.877,7.9a2.385,2.385,0,0,1-3.222,1.323c-4.244-1.261-8.545-2.335-12.847-3.391-1.387-.34-1.763-.845-1.105-2.19q2.679-5.483,5.2-11.043c.577-1.279,1.338-1.323,2.549-1,4.878,1.295,9.782,2.49,14.676,3.721C711.5,454.032,709.138,455.414,710.364,457.081Z" transform="translate(-578.565 -291.772)" fill="#ff9aff"/>
      <path id="Path_119396" data-name="Path 119396" d="M718.592,427.487c.012,3.985-1.693,7.6-2.484,11.413-.318,1.532-.82,3.028-1.238,4.539-5.06-1.269-10.116-2.557-15.185-3.8-1.327-.324-1.427-.9-.861-2.06,2.011-4.138,3.945-8.314,5.858-12.5.426-.934.882-1.489,2-1.112C710.608,425.3,714.76,425.849,718.592,427.487Z" transform="translate(-581.602 -284.638)" fill="#ff9aff"/>
      <path id="Path_119397" data-name="Path 119397" d="M691.565,392.244c4.967,1.282,9.93,2.582,14.9,3.833,1.324.333,1.763.876,1.111,2.228-2,4.143-3.926,8.319-5.848,12.5-.383.834-.822,1.318-1.819,1-4.039-1.286-8.265-1.93-12.211-3.542a8.1,8.1,0,0,1,.576-3.073Q689.932,398.72,691.565,392.244Z" transform="translate(-578.472 -275.493)" fill="#ff9aff"/>
      <path id="Path_119398" data-name="Path 119398" d="M591.9,383.729q.32-1.81.64-3.62c.158-.9.716-1.912-.9-2.161-.925-.143-.888-.943-.74-1.68.035-.173.075-.344.112-.515,1.311-6.058,1.316-6.076,7.332-4.431,3.817,1.043,7.617,2.149,11.425,3.228-.248,4.052-.535,8.1-.724,12.156-.065,1.374-.755,1.751-1.887,1.414C602.086,386.609,596.831,385.724,591.9,383.729Z" transform="translate(-550.451 -269.172)" fill="#d564d5"/>
      <path id="Path_119401" data-name="Path 119401" d="M727.247,402.276c-1.025,5.4-2.713,10.621-4.178,15.9-3.843-.969-7.671-2.01-11.537-2.875-1.734-.388-1.607-1.212-1.02-2.444q2.783-5.842,5.509-11.712c.491-1.062,1.045-1.844,2.384-1.432C721.338,400.617,724.413,401.035,727.247,402.276Z" transform="translate(-584.964 -277.623)" fill="#ff9aff"/>
      <path id="Path_119402" data-name="Path 119402" d="M685,418.333c3.975.453,7.742,1.784,11.6,2.726,1.424.348,1.276,1.292.834,2.25-1.89,4.1-3.839,8.164-5.726,12.262a1.725,1.725,0,0,1-2.389,1c-2.764-.907-5.7-1.242-8.357-2.5C681.733,428.674,683.522,423.543,685,418.333Z" transform="translate(-576.53 -283.041)" fill="#ff9aff"/>
      <path id="Path_119403" data-name="Path 119403" d="M644.338,363.556c-.093-.146-.168-.4-.281-.423-4.09-.657-2.952-3.323-2.268-5.825.343-1.253.654-2.515.979-3.773,6.42,1.323,12.669,3.3,19,4.961,1.333.35,1.713,1.031,1.324,2.306-.669,2.192-1.292,4.4-1.935,6.6-2.888-.709-5.767-1.447-8.662-2.117C649.788,364.655,647.284,363.06,644.338,363.556Z" transform="translate(-564.999 -264.295)" fill="#ff9aff"/>
      <path id="Path_119404" data-name="Path 119404" d="M673.844,404.82c-2.91-.763-5.809-1.571-8.735-2.269-1.472-.35-1.819-1.144-1.446-2.5q1.757-6.4,3.458-12.817c.266-1,.615-1.5,1.843-1.108,2.867.909,5.787,1.649,8.686,2.458-.49,1.94-1.071,3.863-1.451,5.823C675.524,397.9,673.839,401.171,673.844,404.82Z" transform="translate(-571.484 -273.684)" fill="#ff9aff"/>
      <path id="Path_119405" data-name="Path 119405" d="M666.508,430.325c-2.91-.721-5.817-1.458-8.733-2.156-1.232-.294-1.459-.92-1.117-2.121q1.779-6.233,3.366-12.52c.378-1.492,1.039-2.1,2.612-1.581,2.674.877,5.5,1.242,8.095,2.4Q668.619,422.334,666.508,430.325Z" transform="translate(-569.456 -281.142)" fill="#ff9aff"/>
      <path id="Path_119406" data-name="Path 119406" d="M699.114,368.97c6.135.831,11.941,2.985,17.919,4.443,1.016.248,1.2.872.74,1.79-1.131,2.279-2.229,4.575-3.341,6.865-.264-.215-.5-.571-.795-.623-5.758-1.033-11.243-3.108-16.937-4.378A38.478,38.478,0,0,1,699.114,368.97Z" transform="translate(-581.082 -268.76)" fill="#ff9aff"/>
      <path id="Path_119407" data-name="Path 119407" d="M660.382,454.741c-2.894-.761-5.782-1.545-8.685-2.273-1.223-.307-1.828-.826-1.431-2.218,1.109-3.892,2.15-7.8,3.18-11.717.238-.9.637-1.5,1.64-1.173,2.815.919,5.842,1.16,8.481,2.638a7.511,7.511,0,0,1-.47,3.33C662.154,447.122,661.282,450.935,660.382,454.741Z" transform="translate(-567.614 -288.519)" fill="#ff9aff"/>
      <path id="Path_119408" data-name="Path 119408" d="M678.141,443.787c2.82.674,5.634,1.374,8.462,2.009,1.24.279,1.565.747.954,1.986-1.826,3.706-3.558,7.459-5.288,11.212-.468,1.015-.962,1.524-2.209,1.078-1.895-.677-3.957-.834-5.782-1.763Q676.21,451.048,678.141,443.787Z" transform="translate(-574.596 -290.405)" fill="#ff9aff"/>
      <path id="Path_119411" data-name="Path 119411" d="M696.033,380.364c5.694,1.27,11.179,3.345,16.937,4.378.293.052.531.407.795.623-2.445,6.113-2.448,6.119-8.685,4.36-3.565-1.006-7.124-2.033-10.686-3.05q.1-.779.195-1.56a9.982,9.982,0,0,0,.981-4.559A2.144,2.144,0,0,1,696.033,380.364Z" transform="translate(-580.415 -272.057)" fill="#ff9aff"/>
      <path id="Path_119414" data-name="Path 119414" d="M645.2,367.6c2.945-.5,5.45,1.1,8.157,1.726,2.895.67,5.774,1.408,8.662,2.117-1.246,6.561-1.254,6.592-7.705,4.851-3.379-.912-6.871-1.466-10.051-3.036A7.8,7.8,0,0,1,645.2,367.6Z" transform="translate(-565.862 -268.336)" fill="#d564d5"/>
      <path id="Path_119415" data-name="Path 119415" d="M740.689,379.88c-1.637,1.384-1.483,3.5-2.053,5.288-.578,1.813-.819,3.561-3.4,2.359-.716-.335-1.353.2-1.971.53-.024-1.1-.405-1.657-1.679-1.769a25.033,25.033,0,0,1-6.505-1.589c.957-2.161,1.952-4.305,2.858-6.487.614-1.48,1.726-1.245,2.857-.952C734.1,378.117,737.393,379.005,740.689,379.88Z" transform="translate(-589.294 -271.096)" fill="#ff9aff"/>
      <path id="Path_119416" data-name="Path 119416" d="M672.434,370.874c.505-2.408,1.083-4.8,1.49-7.227.275-1.637,1.355-1.411,2.365-1.156,2.9.733,5.775,1.564,8.659,2.356a57.972,57.972,0,0,0-2.18,8.718c-.173,0-.346-.006-.52-.006A48.772,48.772,0,0,0,672.434,370.874Z" transform="translate(-574.062 -266.834)" fill="#ff9aff"/>
      <path id="Path_119417" data-name="Path 119417" d="M639.017,380.947c1.727.2,2.179-.886,2.308-2.293,5.052,1.3,10.1,2.632,15.163,3.87,1.585.387,1.945,1.134,1.49,2.654-1.035,3.468-1.962,6.969-2.905,10.464-1.1,4.091-1.092,4.094-5.044,2.375.981-.553.473-1.61.809-2.354.527-1.17.231-3.251,2.664-2.608.826.218.858-.6,1.027-1.2,1.992-7.088,2.92-6.066-4.465-7.872C646.356,383.072,642.7,381.964,639.017,380.947Z" transform="translate(-564.394 -271.562)" fill="#ff9aff"/>
      <path id="Path_119420" data-name="Path 119420" d="M647.8,425.1c1.322-5.233,3.115-10.35,3.907-15.715,1.1.215,2.2.448,3.312.64,1.045.182.923.851.726,1.586-1.19,4.419-2.162,8.912-3.642,13.232C651.195,427.484,649.294,425.711,647.8,425.1Z" transform="translate(-566.934 -280.453)" fill="#ff9aff"/>
      <path id="Path_119421" data-name="Path 119421" d="M671.822,374.359a48.794,48.794,0,0,1,9.816,2.685l-.539,4.219c-.519.393-1.092.751-1,1.541-3.1-.092-5.922-1.38-8.885-2.065-1.1-.254-.969-1.1-.751-1.885C670.887,377.347,671.366,375.856,671.822,374.359Z" transform="translate(-573.45 -270.319)" fill="#d564d5"/>
      <path id="Path_119422" data-name="Path 119422" d="M724.014,387.816a25.034,25.034,0,0,0,6.505,1.589c1.274.112,1.655.672,1.679,1.769-.049,1.815-.026,3.646-1.186,5.208-3.021-.193-5.828-1.3-8.72-2.038-1.165-.3-1.011-1-.611-1.806Q722.849,390.178,724.014,387.816Z" transform="translate(-588.224 -274.212)" fill="#ff9aff"/>
      <path id="Path_119424" data-name="Path 119424" d="M641.111,449.493c1.81-4.584,2.679-9.424,3.866-14.178,4.2.682,4.209.684,3.175,4.757-.608,2.394-1.222,4.786-1.863,7.17C645.215,451.227,645,451.312,641.111,449.493Z" transform="translate(-565 -287.954)" fill="#ff9aff"/>
      <path id="Path_119426" data-name="Path 119426" d="M620.55,377.353c2.025-.121,2.936.391,2.2,2.739-1.153,3.674-1.972,7.451-2.932,11.184-.259-.2-.763-.431-.741-.591C619.693,386.255,619.191,381.7,620.55,377.353Z" transform="translate(-558.625 -271.181)" fill="#d564d5"/>
      <path id="Path_119427" data-name="Path 119427" d="M684.082,385.614c-.1-.79.477-1.148,1-1.541l6.525,2.114q-.1.78-.195,1.56C688.63,388.182,686.443,386.6,684.082,385.614Z" transform="translate(-577.429 -273.13)" fill="#fdfdfe"/>
      <path id="Path_119429" data-name="Path 119429" d="M821.13,518.391l-35.174-.023a1.524,1.524,0,0,1,1.266-1.488,35.814,35.814,0,0,0,18.718-11.446A54.374,54.374,0,0,0,816.49,487.4c2.136-5.782,4-11.827,4.114-18.159.012-.7.22-1.206.961-1.367q.042,24.248.063,48.5A8.623,8.623,0,0,1,821.13,518.391Z" transform="translate(-606.904 -297.373)" fill="#f0f"/>
      <path id="Path_119433" data-name="Path 119433" d="M794.868,443.916c.183-4.263,2.046-7.845,4.554-11.165,1.657-.033,3.224.151,4.224,1.721-2.8,2.325-4.673,5.151-4.865,8.9C797.555,444.1,796.193,443.874,794.868,443.916Z" transform="translate(-609.483 -287.211)" fill="#f0f"/>
      <path id="Path_119434" data-name="Path 119434" d="M815.515,446.915c.431-1.276-.161-2.451-.364-3.665l3.677.009q.172,1.562.347,3.124Z" transform="translate(-615.351 -290.25)" fill="#ee48ee"/>
      <path id="Path_119440" data-name="Path 119440" d="M692.012,384.47l-6.525-2.114.539-4.219c.173,0,.346,0,.519.006l6.447,1.767A9.974,9.974,0,0,1,692.012,384.47Z" transform="translate(-577.838 -271.412)" fill="#d564d5"/>
      <path id="Path_119441" data-name="Path 119441" d="M821.976,472.224c.959-.822,2.013-1.778,3.195-.565,1.131,1.159.648,2.486-.3,3.536-.8.88-1.464,2.03-2.88,2.1Q821.982,474.762,821.976,472.224Z" transform="translate(-617.325 -298.302)" fill="#f0f"/>
      <path id="Path_119442" data-name="Path 119442" d="M820.542,472.238q.005,2.537.011,5.074a6.342,6.342,0,0,1-3.072-2.76c-.517-1.044-.788-2.038.208-2.863C818.787,470.779,819.794,471,820.542,472.238Z" transform="translate(-615.891 -298.316)" fill="#ee48ee"/>
    </g>
    <g id="Ellipse_3076" data-name="Ellipse 3076" transform="translate(-1078.611 1117.285)" fill="none" stroke="#ee48ee" stroke-width="2">
      <circle cx="9.5" cy="9.5" r="9.5" stroke="none"/>
      <circle cx="9.5" cy="9.5" r="8.5" fill="none"/>
    </g>
    <g id="Ellipse_3079" data-name="Ellipse 3079" transform="translate(-999.611 1137.285)" fill="none" stroke="#ee48ee" stroke-width="2">
      <circle cx="10" cy="10" r="10" stroke="none"/>
      <circle cx="10" cy="10" r="9" fill="none"/>
    </g>
    <g id="Ellipse_3077" data-name="Ellipse 3077" transform="translate(-1074.611 1121.285)" fill="none" stroke="#ee48ee" stroke-width="2">
      <circle cx="5.5" cy="5.5" r="5.5" stroke="none"/>
      <circle cx="5.5" cy="5.5" r="4.5" fill="none"/>
    </g>
    <g id="Ellipse_3078" data-name="Ellipse 3078" transform="translate(-995.611 1141.285)" fill="none" stroke="#ee48ee" stroke-width="2">
      <circle cx="6" cy="6" r="6" stroke="none"/>
      <circle cx="6" cy="6" r="5" fill="none"/>
    </g>
    <rect id="Rectangle_20817" data-name="Rectangle 20817" width="288" height="3" rx="1.5" transform="translate(-1228.611 1158.285)" fill="#fa00fa"/>
    <g id="Ellipse_3080" data-name="Ellipse 3080" transform="translate(-896.611 956.285)" fill="none" stroke="#ff80ff" stroke-width="1">
      <circle cx="3" cy="3" r="3" stroke="none"/>
      <circle cx="3" cy="3" r="2.5" fill="none"/>
    </g>
    <g id="Ellipse_3081" data-name="Ellipse 3081" transform="translate(-886.611 960.285)" fill="none" stroke="#ff80ff" stroke-width="1">
      <circle cx="3" cy="3" r="3" stroke="none"/>
      <circle cx="3" cy="3" r="2.5" fill="none"/>
    </g>
    <g id="Group_50648" data-name="Group 50648" transform="translate(-1181.466 1089.238)">
      <path id="Path_119447-2" data-name="Path 119447" d="M637.263,366.082c-.2,11.9-.393,23.5-.585,35.012H614.231c.207-11.874.41-23.463.611-35.012Z" transform="translate(-612.202 -332.833)" fill="#eb60eb"/>
      <path id="Path_119448-2" data-name="Path 119448" d="M702.954,402.507c.211-11.9.417-23.458.623-35.041h22.432c-.207,11.84-.41,23.467-.612,35.041Z" transform="translate(-673.391 -333.788)" fill="#eb60eb"/>
      <path id="Path_119449-2" data-name="Path 119449" d="M706.357,336.759V326.673h24.924v10.086Z" transform="translate(-675.737 -305.655)" fill="#fa00fa"/>
      <path id="Path_119450-2" data-name="Path 119450" d="M607.694,324.989h24.951v10.057H607.694Z" transform="translate(-607.694 -304.493)" fill="#fa00fa"/>
      <path id="Path_119451-2" data-name="Path 119451" d="M702.911,278.233c-.826,0-1.658.061-2.477-.013a2.14,2.14,0,0,1-2.116-2.634c.873-6.056,7.386-13.167,13.251-14.466a9.33,9.33,0,0,1,10.076,4.407c1.644,2.823.9,6.126-1.941,8.375a19.828,19.828,0,0,1-9.4,3.7c-2.436.4-4.916.531-7.377.782Zm-3.068-1.785a33.7,33.7,0,0,0,13.591-3.656,22.488,22.488,0,0,0,3.5-2.5c1.158-.956.981-2.01,0-3.053a5.318,5.318,0,0,0-5.66-1.5,17.171,17.171,0,0,0-10.209,7.988A24.021,24.021,0,0,0,699.843,276.448Z" transform="translate(-670.17 -260.293)" fill="#fa00fa"/>
      <path id="Path_119452-2" data-name="Path 119452" d="M635.543,276.657a34.564,34.564,0,0,1-12.817-2.558c-2.838-1.251-5.371-2.9-6.244-6.192a5.665,5.665,0,0,1,1.009-4.829,9.011,9.011,0,0,1,10.629-3.573c6.624,2.477,10.346,7.592,12.005,14.279.514,2.07-.562,3.079-2.732,2.986C636.777,276.744,636.16,276.7,635.543,276.657Zm2.782-1.695c.107-.213.151-.259.146-.3a1.77,1.77,0,0,0-.079-.444,16.564,16.564,0,0,0-11.4-10.45,4.8,4.8,0,0,0-4.507,1.01c-1.767,1.434-1.885,2.573-.143,4.052C626.956,272.753,632.528,274.216,638.325,274.962Z" transform="translate(-613.629 -258.947)" fill="#fa00fa"/>
    </g>
    <g id="Group_50649" data-name="Group 50649" transform="translate(-1220.085 1110.177)">
      <path id="Path_119447-3" data-name="Path 119447" d="M630.245,366.082c-.138,8.275-.273,16.34-.407,24.344H614.231c.144-8.256.285-16.314.425-24.344Z" transform="translate(-612.82 -342.964)" fill="#eb60eb"/>
      <path id="Path_119448-3" data-name="Path 119448" d="M702.954,391.83c.147-8.276.29-16.31.433-24.364h15.6c-.144,8.233-.285,16.317-.425,24.364Z" transform="translate(-682.399 -344.05)" fill="#eb60eb"/>
      <path id="Path_119449-3" data-name="Path 119449" d="M706.357,333.686v-7.013h17.33v7.013Z" transform="translate(-685.067 -312.059)" fill="#fa00fa"/>
      <path id="Path_119450-3" data-name="Path 119450" d="M607.694,324.989h17.349v6.992H607.694Z" transform="translate(-607.694 -310.738)" fill="#fa00fa"/>
      <path id="Path_119451-3" data-name="Path 119451" d="M701.5,272.952c-.574,0-1.153.043-1.723-.009a1.488,1.488,0,0,1-1.471-1.831c.607-4.211,5.136-9.155,9.213-10.058a6.487,6.487,0,0,1,7.006,3.064,4.393,4.393,0,0,1-1.35,5.823,13.786,13.786,0,0,1-6.536,2.572c-1.694.278-3.418.369-5.129.544Zm-2.133-1.241a23.434,23.434,0,0,0,9.45-2.542,15.633,15.633,0,0,0,2.432-1.735c.805-.665.682-1.4,0-2.123a3.7,3.7,0,0,0-3.936-1.041,11.939,11.939,0,0,0-7.1,5.554A16.689,16.689,0,0,0,699.368,271.71Z" transform="translate(-678.736 -260.478)" fill="#fa00fa"/>
      <path id="Path_119452-3" data-name="Path 119452" d="M629.68,271.26a24.031,24.031,0,0,1-8.911-1.778c-1.974-.87-3.735-2.017-4.341-4.305a3.939,3.939,0,0,1,.7-3.358,6.265,6.265,0,0,1,7.391-2.484c4.606,1.722,7.193,5.278,8.347,9.928.357,1.439-.391,2.141-1.9,2.076C630.538,271.321,630.109,271.287,629.68,271.26Zm1.934-1.178c.074-.148.1-.18.1-.208a1.234,1.234,0,0,0-.055-.309,11.517,11.517,0,0,0-7.93-7.266,3.337,3.337,0,0,0-3.134.7c-1.229,1-1.311,1.789-.1,2.817C623.709,268.546,627.583,269.563,631.614,270.082Z" transform="translate(-614.443 -258.947)" fill="#fa00fa"/>
    </g>
  </g>
</svg>
