<svg width="20" height="20" viewBox="0 0 20 20" fill="none" xmlns="http://www.w3.org/2000/svg">
<circle cx="10" cy="10" r="8" fill="#FC6A57"/>
<path d="M9.61007 0C9.71552 0 9.81706 0 9.92251 0C10.0787 0.113259 10.2467 0.214802 10.3912 0.339777C10.7192 0.624878 11.0434 0.91779 11.3597 1.21851C11.5902 1.43722 11.844 1.4958 12.1486 1.39816C12.6212 1.24976 13.0938 1.11306 13.5663 0.972466C13.9959 0.847491 14.2888 0.988088 14.4568 1.40207C14.6442 1.86682 14.8356 2.32767 15.0153 2.79633C15.1246 3.08143 15.3238 3.23374 15.6206 3.28061C16.1088 3.35481 16.597 3.43292 17.0852 3.51494C17.5538 3.59305 17.7569 3.85862 17.7218 4.32728C17.6827 4.81937 17.6554 5.31537 17.6163 5.80746C17.5929 6.10037 17.7101 6.31908 17.9522 6.48701C18.3623 6.7643 18.7645 7.0494 19.1707 7.3306C19.5573 7.60008 19.6316 7.91642 19.4011 8.32259C19.1668 8.74048 18.9364 9.16618 18.6864 9.57625C18.5107 9.86917 18.5146 10.1426 18.6903 10.4355C18.9364 10.8494 19.1668 11.2712 19.4011 11.693C19.6237 12.0953 19.5495 12.4116 19.1746 12.6733C18.7763 12.9545 18.3779 13.2396 17.9717 13.5052C17.7061 13.6809 17.589 13.9113 17.6124 14.2277C17.6515 14.7276 17.6788 15.2275 17.7179 15.7274C17.7452 16.1219 17.5265 16.4187 17.1438 16.4812C16.6439 16.5632 16.144 16.6452 15.6401 16.7194C15.3277 16.7624 15.1168 16.9225 15.0036 17.2193C14.8317 17.6684 14.6482 18.1137 14.4685 18.5589C14.281 19.0275 13.9959 19.1603 13.5077 19.0158C13.0586 18.883 12.6095 18.7581 12.1643 18.6096C11.8362 18.5003 11.5706 18.5706 11.3246 18.8049C11.0043 19.1096 10.6763 19.4064 10.3443 19.6993C10.2154 19.8125 10.0592 19.8985 9.9186 20C9.81316 20 9.71161 20 9.60617 20C9.45776 19.8946 9.30154 19.8047 9.16485 19.6876C8.83288 19.3986 8.50482 19.0978 8.18457 18.7932C7.94243 18.5628 7.68076 18.5042 7.36051 18.6096C6.89576 18.7581 6.4271 18.8908 5.96235 19.0275C5.53274 19.1525 5.23983 19.0119 5.0719 18.5979C4.88053 18.1293 4.68916 17.6606 4.5056 17.1881C4.40015 16.9186 4.20878 16.7702 3.92759 16.7272C3.43159 16.6491 2.9395 16.5671 2.4435 16.489C1.98266 16.4187 1.77176 16.1453 1.81081 15.6727C1.84987 15.1884 1.8733 14.7003 1.91236 14.2121C1.93579 13.8996 1.81862 13.677 1.56086 13.5052C1.15079 13.2318 0.748521 12.9428 0.34235 12.6616C-0.02086 12.4077 -0.0950643 12.0875 0.119737 11.6969C0.361878 11.2673 0.600112 10.8338 0.850064 10.4081C1.01019 10.1347 1.01409 9.87307 0.853969 9.59969C0.604018 9.17399 0.365783 8.74048 0.123643 8.31088C-0.0950643 7.92423 -0.02086 7.60008 0.34235 7.34622C0.732899 7.07284 1.11564 6.79164 1.514 6.53779C1.82253 6.33861 1.94751 6.08084 1.91236 5.71763C1.86549 5.23726 1.84596 4.75688 1.80691 4.27651C1.77957 3.88596 2.00609 3.58524 2.38492 3.52666C2.88482 3.44464 3.38473 3.36262 3.88853 3.28842C4.20488 3.24546 4.40796 3.08143 4.52122 2.78461C4.70087 2.31986 4.88834 1.85511 5.07971 1.39035C5.23983 0.999805 5.54055 0.855302 5.94282 0.972466C6.42319 1.11306 6.90357 1.25366 7.38004 1.40207C7.68076 1.4958 7.93852 1.44112 8.16895 1.22242C8.48529 0.921695 8.80945 0.628783 9.13751 0.343683C9.28592 0.214802 9.45385 0.113259 9.61007 0ZM17.4132 10.0098C17.4054 5.77622 13.9764 2.3472 9.76629 2.3511C5.55227 2.35501 2.10373 5.79965 2.11544 9.98633C2.13106 14.2238 5.56008 17.6606 9.76239 17.645C13.992 17.6294 17.421 14.2043 17.4132 10.0098Z" fill="#FC6A57"/>
<path d="M7.52063 12.5718C7.06369 12.564 6.83326 12.1617 7.02463 11.8493C7.0754 11.7634 7.15742 11.6892 7.23162 11.615C8.5673 10.2754 9.90297 8.93581 11.2504 7.60404C11.3714 7.48297 11.5589 7.35018 11.7112 7.35409C11.8557 7.35799 12.0744 7.5064 12.1213 7.63919C12.176 7.7876 12.1291 8.04145 12.0237 8.16252C11.6604 8.57651 11.2504 8.95534 10.8598 9.34589C9.86392 10.3418 8.87193 11.3377 7.86822 12.3297C7.75105 12.4429 7.59483 12.521 7.52063 12.5718Z" fill="white"/>
<path d="M9.43035 8.57649C9.43035 9.23261 8.85624 9.80672 8.19231 9.81453C7.53228 9.82234 6.95818 9.25605 6.94646 8.58821C6.93474 7.92037 7.52447 7.32283 8.19622 7.33064C8.86015 7.34236 9.43035 7.91647 9.43035 8.57649ZM8.17278 8.02191C7.86425 8.02972 7.63383 8.26405 7.62992 8.56868C7.62992 8.88503 7.88378 9.13498 8.19622 9.12717C8.51256 9.11936 8.7508 8.86159 8.73517 8.54134C8.72736 8.24062 8.48522 8.01801 8.17278 8.02191Z" fill="white"/>
<path d="M12.1876 11.3298C12.1954 11.9977 11.6369 12.564 10.9652 12.5718C10.3012 12.5835 9.72712 12.025 9.71149 11.3533C9.69587 10.6737 10.27 10.0957 10.9534 10.0957C11.6213 10.1035 12.1798 10.6581 12.1876 11.3298ZM11.508 11.3376C11.508 11.0369 11.2737 10.7948 10.9691 10.787C10.6371 10.7792 10.4028 11.0057 10.4028 11.3337C10.4028 11.6423 10.6293 11.8844 10.93 11.8961C11.2346 11.9078 11.5041 11.6462 11.508 11.3376Z" fill="white"/>
</svg>
